<?xml version="1.0" encoding="UTF-8"?>
<svg id="Layer_1" data-name="Layer 1" xmlns="http://www.w3.org/2000/svg" viewBox="0 0 524.09 195.95">
  <g>
    <path d="M198.24,138.38v-41.16h8.23v34.15h8.47v7.02h-16.7Z" style="fill: #e0e0e0; stroke-width: 0px;"/>
    <path d="M217.09,101.14v-6.97h8.37v6.97h-8.37ZM217.09,138.38v-35.08h8.37v35.08h-8.37Z" style="fill: #e0e0e0; stroke-width: 0px;"/>
    <path d="M228.79,138.38v-35.08h8.19v4.07c.37-1.43,1.01-2.53,1.92-3.3s2.23-1.15,3.98-1.15c1.4,0,2.6.32,3.59.97s1.69,1.5,2.09,2.56c.64-1.15,1.39-2.03,2.26-2.63s2.1-.9,3.71-.9c1.95,0,3.45.42,4.5,1.25s1.79,1.99,2.2,3.46.62,3.18.62,5.11v25.63h-8.35v-25.77c0-2.26-.58-3.39-1.73-3.39-.61,0-1.08.21-1.4.62s-.55.92-.68,1.53-.19,1.22-.19,1.82v25.19h-8.35v-25.77c0-.73-.09-1.47-.27-2.2s-.64-1.1-1.37-1.1c-.62,0-1.11.23-1.45.68s-.58,1.01-.7,1.67-.19,1.31-.19,1.95v24.77h-8.37Z" style="fill: #e0e0e0; stroke-width: 0px;"/>
    <path d="M274.93,138.75c-2.49,0-4.48-.47-5.96-1.4s-2.54-2.28-3.18-4.05-.96-3.88-.96-6.36v-14.1c0-3.26.94-5.73,2.81-7.4s4.44-2.51,7.72-2.51c6.74,0,10.1,3.31,10.1,9.92v2.55c0,3.09-.03,5.16-.09,6.22h-12.16v6.78c0,.62.04,1.24.12,1.84s.25,1.1.53,1.49.71.58,1.32.58c.87,0,1.42-.38,1.64-1.13s.33-1.74.33-2.96v-3.37h8.33v1.99c0,2.62-.32,4.81-.97,6.58s-1.74,3.1-3.27,4-3.63,1.34-6.28,1.34ZM273.16,117.45h3.98v-4.72c0-1.26-.16-2.17-.47-2.72s-.78-.83-1.4-.83c-.67,0-1.19.27-1.56.8s-.55,1.45-.55,2.76v4.72Z" style="fill: #e0e0e0; stroke-width: 0px;"/>
    <path d="M288.5,138.38v-41.16h8.51v41.16h-8.51Z" style="fill: #e0e0e0; stroke-width: 0px;"/>
    <path d="M300.33,101.14v-6.97h8.37v6.97h-8.37ZM300.33,138.38v-35.08h8.37v35.08h-8.37Z" style="fill: #e0e0e0; stroke-width: 0px;"/>
    <path d="M321.48,144.46c-1.62,0-3.01-.08-4.17-.25s-2.2-.46-3.12-.88-1.84-1.01-2.76-1.78l2.83-4.84c2.04,1.22,4.09,1.82,6.13,1.82,1.34,0,2.34-.43,2.99-1.29s.98-1.97.98-3.34v-3.44c-.67,2.4-2.46,3.6-5.36,3.6-1.67,0-3.02-.4-4.05-1.19s-1.78-1.87-2.25-3.23-.7-2.87-.7-4.54v-12.61c0-1.89.2-3.55.61-4.99s1.11-2.57,2.13-3.38,2.43-1.22,4.26-1.22c1.54,0,2.75.39,3.61,1.17s1.45,1.83,1.74,3.16v-3.95h8.54v30.08c0,3.98-.91,6.82-2.75,8.53s-4.72,2.56-8.67,2.56ZM322.39,127.76c1.31,0,1.96-1.19,1.96-3.56v-11.93c0-.64-.18-1.29-.55-1.96s-.87-1.01-1.51-1.01c-.81,0-1.32.3-1.52.9s-.3,1.29-.3,2.07v11.93c0,.84.11,1.65.32,2.41s.74,1.15,1.6,1.15Z" style="fill: #e0e0e0; stroke-width: 0px;"/>
    <path d="M336.16,138.38v-41.16h8.61v9.57c.45-1.31,1.15-2.28,2.08-2.91s2.03-.95,3.27-.95c2.43,0,4.2.76,5.31,2.29s1.66,3.58,1.66,6.15v27.01h-8.47v-26.48c0-.76-.16-1.39-.48-1.87s-.82-.73-1.51-.73c-.58,0-1.03.25-1.37.75s-.5,1.09-.5,1.78v26.55h-8.61Z" style="fill: #e0e0e0; stroke-width: 0px;"/>
    <path d="M367.57,138.75c-2.26,0-3.79-.48-4.57-1.44s-1.18-2.43-1.18-4.41v-21.87h-2.36v-6.39h2.36v-7.44h8.14v7.44h2.36v6.39h-2.36v19.9c0,.58.09.98.28,1.22s.55.35,1.08.35c.37,0,.71-.03,1.01-.09v5.71c-.19.06-.77.18-1.75.36s-1.98.27-2.99.27Z" style="fill: #e0e0e0; stroke-width: 0px;"/>
    <path d="M395.95,138.75c-2.98,0-5.38-.93-7.19-2.78-1.82-1.86-2.72-4.45-2.72-7.79v-18.99c0-3.99.79-7.05,2.37-9.17s4.16-3.18,7.73-3.18c1.95,0,3.68.36,5.2,1.08s2.72,1.79,3.59,3.22,1.31,3.22,1.31,5.39v7.11h-8.19v-6.08c0-1.23-.16-2.06-.47-2.49s-.8-.64-1.45-.64c-.76,0-1.28.28-1.54.83s-.4,1.29-.4,2.21v20.61c0,1.14.17,1.94.5,2.41s.81.7,1.44.7c.7,0,1.2-.29,1.49-.87s.43-1.33.43-2.25v-7.41h8.28v7.79c0,3.62-.91,6.24-2.74,7.87s-4.37,2.44-7.65,2.44Z" style="fill: #e0e0e0; stroke-width: 0px;"/>
    <path d="M408.88,101.14v-6.97h8.37v6.97h-8.37ZM408.88,138.38v-35.08h8.37v35.08h-8.37Z" style="fill: #e0e0e0; stroke-width: 0px;"/>
    <path d="M420.57,138.38v-35.08h8.37v4.47c.31-1.34.89-2.48,1.74-3.43s2.03-1.42,3.54-1.42c2.43,0,4.2.75,5.3,2.25s1.65,3.55,1.65,6.15v27.06h-8.26v-26.2c0-.69-.14-1.32-.42-1.91s-.76-.88-1.45-.88c-.64,0-1.11.22-1.42.67s-.5,1-.57,1.66-.12,1.32-.12,1.98v24.68h-8.37Z" style="fill: #e0e0e0; stroke-width: 0px;"/>
    <path d="M454.28,138.75c-2.49,0-4.48-.47-5.96-1.4s-2.54-2.28-3.18-4.05-.96-3.88-.96-6.36v-14.1c0-3.26.94-5.73,2.81-7.4s4.44-2.51,7.72-2.51c6.74,0,10.1,3.31,10.1,9.92v2.55c0,3.09-.03,5.16-.09,6.22h-12.16v6.78c0,.62.04,1.24.12,1.84s.25,1.1.53,1.49.71.58,1.32.58c.87,0,1.42-.38,1.64-1.13s.33-1.74.33-2.96v-3.37h8.33v1.99c0,2.62-.32,4.81-.97,6.58s-1.74,3.1-3.27,4-3.63,1.34-6.28,1.34ZM452.5,117.45h3.98v-4.72c0-1.26-.16-2.17-.47-2.72s-.78-.83-1.4-.83c-.67,0-1.19.27-1.56.8s-.55,1.45-.55,2.76v4.72Z" style="fill: #e0e0e0; stroke-width: 0px;"/>
    <path d="M467.84,138.38v-35.08h8.19v4.07c.37-1.43,1.01-2.53,1.92-3.3s2.23-1.15,3.98-1.15c1.4,0,2.6.32,3.59.97s1.69,1.5,2.09,2.56c.64-1.15,1.39-2.03,2.26-2.63s2.1-.9,3.71-.9c1.95,0,3.45.42,4.5,1.25s1.79,1.99,2.2,3.46.62,3.18.62,5.11v25.63h-8.35v-25.77c0-2.26-.58-3.39-1.73-3.39-.61,0-1.08.21-1.4.62s-.55.92-.68,1.53-.19,1.22-.19,1.82v25.19h-8.35v-25.77c0-.73-.09-1.47-.27-2.2s-.64-1.1-1.37-1.1c-.62,0-1.11.23-1.45.68s-.58,1.01-.7,1.67-.19,1.31-.19,1.95v24.77h-8.37Z" style="fill: #e0e0e0; stroke-width: 0px;"/>
    <path d="M510.55,138.75c-1.95,0-3.43-.45-4.46-1.36s-1.72-2.14-2.09-3.72-.56-3.36-.56-5.36c0-2.14.21-3.89.63-5.25s1.14-2.48,2.16-3.36,2.43-1.61,4.22-2.22l5.19-1.78v-3.6c0-1.89-.62-2.83-1.85-2.83-1.12,0-1.68.76-1.68,2.29v2.1h-8.14c-.02-.12-.02-.28-.02-.48v-.67c0-3.49.82-5.97,2.47-7.43s4.25-2.19,7.82-2.19c1.87,0,3.55.33,5.03.99s2.65,1.64,3.52,2.94,1.3,2.89,1.3,4.79v26.73h-8.33v-4.16c-.41,1.47-1.08,2.59-2.01,3.37s-2,1.17-3.2,1.17ZM513.85,132.25c.69,0,1.15-.29,1.4-.87s.37-1.2.37-1.87v-9.78c-1.15.47-2.05,1.06-2.69,1.77s-.96,1.75-.96,3.12v4.51c0,2.07.62,3.11,1.87,3.11Z" style="fill: #e0e0e0; stroke-width: 0px;"/>
  </g>
  <line x1="351.59" y1="194.5" x2="191.59" y2="152.5" style="fill: none; stroke: gold; stroke-miterlimit: 10; stroke-width: 3px;"/>
  <line x1="191.36" y1="88.8" x2="352.59" y2="42.5" style="fill: none; stroke: gold; stroke-miterlimit: 10; stroke-width: 3px;"/>
  <g>
    <rect x="13.73" y="80.01" width="135.51" height="81.49" rx="18.22" ry="18.22" style="fill: #b71c1c; stroke-width: 0px;"/>
    <g>
      <circle cx="39.83" cy="40.18" r="39.83" style="fill: #b71c1c; stroke-width: 0px;"/>
      <circle cx="39.83" cy="40.18" r="18.03" style="fill: #1f1f1f; stroke-width: 0px;"/>
    </g>
    <g>
      <circle cx="124.11" cy="39.83" r="39.83" style="fill: #b71c1c; stroke-width: 0px;"/>
      <circle cx="124.11" cy="39.83" r="18.03" style="fill: #1f1f1f; stroke-width: 0px;"/>
    </g>
    <rect x="129.05" y="94.5" width="53.81" height="28.38" rx="11.61" ry="11.61" transform="translate(-29.23 65.77) rotate(-21.83)" style="fill: #b71c1c; stroke-width: 0px;"/>
    <rect x="168" y="88.35" width="19.23" height="67.16" rx="1.92" ry="1.92" style="fill: #b71c1c; stroke-width: 0px;"/>
    <rect x="131.67" y="120.38" width="46.44" height="28.38" rx="4.26" ry="4.26" transform="translate(62.46 -48.62) rotate(22.24)" style="fill: #b71c1c; stroke-width: 0px;"/>
    <rect x="153.58" y="112.33" width="23.19" height="18.39" style="fill: #b71c1c; stroke-width: 0px;"/>
  </g>
  <g>
    <path d="M68.46,134.33v-30.94h6.19v25.66h6.36v5.27h-12.55Z" style="fill: #e0e0e0; stroke-width: 0px;"/>
    <path d="M89.98,134.61c-2.24,0-4.04-.7-5.41-2.09s-2.05-3.35-2.05-5.85v-14.27c0-3,.59-5.3,1.78-6.89s3.13-2.39,5.81-2.39c1.46,0,2.77.27,3.91.81s2.04,1.34,2.7,2.42.98,2.42.98,4.05v5.34h-6.15v-4.57c0-.93-.12-1.55-.35-1.87s-.6-.48-1.09-.48c-.57,0-.96.21-1.16.62s-.3.97-.3,1.66v15.49c0,.86.13,1.46.38,1.81s.61.53,1.08.53c.53,0,.9-.22,1.12-.65s.33-1,.33-1.69v-5.57h6.22v5.85c0,2.72-.69,4.69-2.06,5.92s-3.29,1.84-5.75,1.84Z" style="fill: #e0e0e0; stroke-width: 0px;"/>
  </g>
</svg>